<svg xmlns="http://www.w3.org/2000/svg" xmlns:xlink="http://www.w3.org/1999/xlink" width="500" zoomAndPan="magnify" viewBox="0 0 375 374.999991" height="500" preserveAspectRatio="xMidYMid meet" version="1.0"><defs><g/><clipPath id="4327c72240"><path d="M 108 92.472656 L 262 92.472656 L 262 171 L 108 171 Z M 108 92.472656 " clip-rule="nonzero"/></clipPath><clipPath id="2bbad1c66b"><path d="M 124 254 L 182 254 L 182 282.222656 L 124 282.222656 Z M 124 254 " clip-rule="nonzero"/></clipPath><clipPath id="641ba9e025"><path d="M 191 259 L 248 259 L 248 282.222656 L 191 282.222656 Z M 191 259 " clip-rule="nonzero"/></clipPath><clipPath id="e06ab154b2"><path d="M 52.707031 187 L 281 187 L 281 276 L 52.707031 276 Z M 52.707031 187 " clip-rule="nonzero"/></clipPath><clipPath id="0ae628596e"><path d="M 169 117 L 210 117 L 210 152 L 169 152 Z M 169 117 " clip-rule="nonzero"/></clipPath><clipPath id="ea147e1ced"><path d="M 157.515625 122.566406 L 210.476562 112.015625 L 217.363281 146.585938 L 164.402344 157.136719 Z M 157.515625 122.566406 " clip-rule="nonzero"/></clipPath><clipPath id="bd048ea7cf"><path d="M 157.515625 122.566406 L 210.476562 112.015625 L 220.878906 164.238281 L 167.921875 174.789062 Z M 157.515625 122.566406 " clip-rule="nonzero"/></clipPath><clipPath id="b5122a4101"><path d="M 163 138 L 217 138 L 217 158 L 163 158 Z M 163 138 " clip-rule="nonzero"/></clipPath><clipPath id="7df53d3de9"><path d="M 157.515625 122.566406 L 210.476562 112.015625 L 217.363281 146.585938 L 164.402344 157.136719 Z M 157.515625 122.566406 " clip-rule="nonzero"/></clipPath><clipPath id="cd81d02ead"><path d="M 157.515625 122.566406 L 210.476562 112.015625 L 220.878906 164.238281 L 167.921875 174.789062 Z M 157.515625 122.566406 " clip-rule="nonzero"/></clipPath></defs><g clip-path="url(#4327c72240)"><path fill="#fff1c5" d="M 108.9375 165.019531 C 110.203125 167.699219 113.308594 169.617188 117.660156 170.300781 C 131.515625 172.496094 153.78125 167.402344 179.566406 161.5 C 189.765625 159.167969 200.316406 156.753906 211.292969 154.566406 C 214.457031 153.9375 217.507812 153.3125 220.453125 152.707031 C 235.535156 149.617188 248.535156 146.953125 261.046875 146.992188 C 246.6875 122.84375 220.523438 106.527344 190.511719 105.996094 C 195.933594 101.390625 197.542969 98.285156 196.246094 95.566406 C 194.949219 92.835938 190.308594 92.480469 188.242188 92.480469 C 186.171875 92.480469 181.535156 92.835938 180.234375 95.566406 C 178.933594 98.296875 180.554688 101.414062 186.015625 106.03125 C 149.664062 107.304688 119.203125 131.730469 108.9375 165.019531 Z M 166.226562 117.007812 C 143.117188 128.6875 132.824219 144.351562 127.5625 156.304688 C 124.703125 162.800781 118.929688 160.359375 120.597656 156.09375 C 129.84375 137.292969 146.4375 123.199219 166.226562 117.007812 Z M 166.226562 117.007812 " fill-opacity="1" fill-rule="nonzero"/></g><path fill="#fff1c5" d="M 107.507812 234.195312 C 110.792969 240.191406 114.753906 245.84375 119.28125 250.992188 L 121.550781 248.996094 C 117.167969 244.015625 113.335938 238.546875 110.160156 232.746094 Z M 107.507812 234.195312 " fill-opacity="1" fill-rule="nonzero"/><g clip-path="url(#2bbad1c66b)"><path fill="#fff1c5" d="M 124.863281 256.8125 C 140.089844 271.378906 159.972656 280.40625 180.851562 282.230469 L 181.113281 279.21875 C 160.917969 277.453125 141.683594 268.722656 126.949219 254.628906 Z M 124.863281 256.8125 " fill-opacity="1" fill-rule="nonzero"/></g><g clip-path="url(#641ba9e025)"><path fill="#fff1c5" d="M 191.976562 279.511719 L 192.074219 282.53125 C 212.4375 281.867188 231.578125 274.710938 247.433594 261.835938 L 245.527344 259.488281 C 230.191406 271.945312 211.671875 278.867188 191.976562 279.511719 Z M 191.976562 279.511719 " fill-opacity="1" fill-rule="nonzero"/></g><path fill="#fff1c5" d="M 251.757812 253.933594 L 253.871094 256.09375 C 256.917969 253.113281 259.78125 249.898438 262.390625 246.539062 L 260 244.6875 C 257.480469 247.9375 254.707031 251.050781 251.757812 253.933594 Z M 251.757812 253.933594 " fill-opacity="1" fill-rule="nonzero"/><path fill="#fff1c5" d="M 311.308594 158.898438 C 304.046875 153.820312 295.128906 153.761719 290.304688 158.441406 C 268.277344 147.792969 249.125 151.714844 221.414062 157.394531 C 218.457031 158.003906 215.398438 158.628906 212.226562 159.261719 C 201.316406 161.429688 190.800781 163.835938 180.628906 166.164062 C 154.363281 172.175781 131.679688 177.367188 116.910156 175.027344 C 112.941406 174.402344 109.699219 172.929688 107.394531 170.828125 C 107.386719 170.824219 107.382812 170.824219 107.375 170.824219 C 95.863281 161.933594 106.746094 145.496094 115.867188 139.796875 C 103.898438 144.773438 96.925781 154.355469 98.097656 164.203125 C 99.105469 172.664062 105.984375 178.90625 116.042969 180.5 C 118.796875 180.9375 121.769531 181.136719 124.949219 181.136719 C 140.039062 181.132812 159.707031 176.636719 181.867188 171.5625 C 192 169.246094 202.476562 166.847656 213.308594 164.691406 C 216.492188 164.058594 219.558594 163.429688 222.523438 162.820312 C 248.867188 157.421875 267.136719 153.679688 287.4375 163.222656 C 285.714844 169.175781 288.882812 176.667969 295.59375 181.363281 C 303.589844 186.957031 313.589844 186.464844 317.929688 180.261719 C 322.269531 174.058594 319.304688 164.492188 311.308594 158.898438 Z M 311.308594 158.898438 " fill-opacity="1" fill-rule="nonzero"/><g clip-path="url(#e06ab154b2)"><path fill="#fff1c5" d="M 261.949219 198.996094 C 246.125 196.492188 222.953125 201.792969 196.128906 207.933594 C 185.996094 210.25 175.515625 212.648438 164.683594 214.804688 C 161.5 215.4375 158.433594 216.066406 155.46875 216.675781 C 128.808594 222.136719 110.417969 225.90625 89.820312 215.921875 L 89.863281 215.863281 C 88.46875 209.175781 88.726562 203.9375 84.058594 200.753906 C 81.167969 198.78125 62.894531 187.941406 62.894531 187.941406 L 79.824219 202.066406 L 78.769531 203.417969 L 60.296875 190.953125 L 77.15625 205.480469 L 75.96875 206.996094 L 57.40625 194.136719 L 74.34375 209.070312 L 73.160156 210.585938 L 55.007812 197.710938 L 71.546875 212.644531 L 70.488281 213.996094 L 52.707031 200.957031 C 52.707031 200.957031 67.621094 216.089844 70.226562 218.421875 C 74.441406 222.1875 79.464844 220.679688 86.292969 220.425781 L 86.328125 220.382812 C 95.328125 224.953125 103.820312 227.074219 112.5625 227.609375 C 119.332031 241.261719 129.625 252.847656 142.445312 261.214844 C 156.292969 270.253906 172.386719 275.03125 188.996094 275.03125 C 228.507812 275.03125 262.757812 247.824219 271.90625 209.792969 C 281.242188 218.878906 270.875 234.230469 262.125 239.699219 C 274.09375 234.722656 281.066406 225.140625 279.894531 215.292969 C 278.886719 206.832031 272.007812 200.589844 261.949219 198.996094 Z M 156.578125 222.101562 C 159.535156 221.492188 162.59375 220.867188 165.765625 220.238281 C 176.675781 218.066406 187.191406 215.65625 197.363281 213.332031 C 211.300781 210.140625 224.226562 207.183594 235.5 205.457031 C 228.839844 225.296875 210.277344 238.816406 188.996094 238.816406 C 175.074219 238.816406 162.089844 233.050781 152.796875 222.875 C 154.042969 222.621094 155.300781 222.363281 156.578125 222.101562 Z M 188.996094 272.007812 C 158.335938 272.007812 130.113281 254.757812 116.019531 227.738281 C 118.042969 227.769531 120.089844 227.71875 122.164062 227.605469 C 122.199219 227.664062 122.238281 227.726562 122.273438 227.785156 C 122.660156 228.394531 123.050781 228.984375 123.464844 229.5625 C 124.289062 230.710938 125.15625 231.816406 126.085938 232.859375 C 127.015625 233.898438 127.980469 234.898438 129.007812 235.820312 C 130.015625 236.761719 131.097656 237.609375 132.183594 238.425781 C 131.328125 237.363281 130.5 236.296875 129.773438 235.164062 C 129.023438 234.050781 128.359375 232.890625 127.746094 231.714844 C 127.128906 230.539062 126.59375 229.332031 126.117188 228.113281 C 126.015625 227.855469 125.917969 227.59375 125.824219 227.335938 C 127.863281 227.148438 129.929688 226.910156 132.035156 226.621094 C 132.316406 227.019531 132.601562 227.414062 132.898438 227.792969 C 133.679688 228.796875 134.511719 229.738281 135.382812 230.628906 C 136.269531 231.507812 137.164062 232.355469 138.125 233.125 C 139.066406 233.910156 140.058594 234.625 141.054688 235.304688 C 140.28125 234.371094 139.535156 233.429688 138.863281 232.441406 C 138.175781 231.46875 137.570312 230.445312 136.996094 229.421875 C 136.4375 228.390625 135.9375 227.335938 135.507812 226.269531 C 135.488281 226.21875 135.46875 226.167969 135.445312 226.117188 C 137.519531 225.789062 139.632812 225.425781 141.796875 225.027344 C 142.304688 225.644531 142.8125 226.195312 143.34375 226.753906 C 143.972656 227.410156 144.625 228.035156 145.300781 228.636719 C 146.644531 229.832031 148.09375 230.914062 149.636719 231.761719 C 148.394531 230.511719 147.359375 229.117188 146.449219 227.65625 C 145.996094 226.925781 145.574219 226.183594 145.179688 225.425781 C 145.019531 225.117188 144.863281 224.800781 144.710938 224.480469 C 146.242188 224.1875 147.792969 223.882812 149.375 223.566406 C 159.300781 235.207031 173.609375 241.835938 188.996094 241.835938 C 212.097656 241.835938 232.179688 226.824219 238.820312 204.980469 C 240.460938 204.761719 242.0625 204.570312 243.625 204.414062 C 243.578125 205.167969 243.503906 205.921875 243.40625 206.679688 C 243.183594 208.382812 242.816406 210.078125 242.203125 211.730469 C 243.257812 210.320312 244.132812 208.738281 244.859375 207.09375 C 245.226562 206.269531 245.558594 205.425781 245.863281 204.570312 C 245.90625 204.445312 245.949219 204.320312 245.992188 204.199219 C 248.210938 204.019531 250.335938 203.917969 252.367188 203.898438 C 252.351562 204.789062 252.292969 205.683594 252.199219 206.582031 C 252.058594 207.746094 251.894531 208.921875 251.625 210.085938 C 251.382812 211.253906 251.050781 212.410156 250.695312 213.566406 C 251.355469 212.554688 252 211.519531 252.570312 210.433594 C 253.164062 209.359375 253.667969 208.230469 254.152344 207.082031 C 254.5625 206.058594 254.929688 205.007812 255.242188 203.933594 C 257.304688 204.003906 259.253906 204.179688 261.082031 204.46875 C 261.121094 204.472656 261.15625 204.480469 261.195312 204.488281 C 261.160156 205.738281 261.070312 207.003906 260.898438 208.265625 C 260.726562 209.578125 260.496094 210.898438 260.175781 212.203125 C 259.875 213.515625 259.460938 214.800781 259.019531 216.089844 C 259.761719 214.953125 260.488281 213.785156 261.117188 212.554688 C 261.765625 211.339844 262.332031 210.070312 262.847656 208.773438 C 263.324219 207.59375 263.726562 206.378906 264.082031 205.140625 C 266.082031 205.734375 267.832031 206.578125 269.304688 207.625 C 261.015625 245.070312 227.613281 272.007812 188.996094 272.007812 Z M 188.996094 272.007812 " fill-opacity="1" fill-rule="nonzero"/></g><g clip-path="url(#0ae628596e)"><g clip-path="url(#ea147e1ced)"><g clip-path="url(#bd048ea7cf)"><path fill="#13322b" d="M 176.320312 145.28125 C 174.871094 140.804688 177.003906 137.242188 179.066406 133.800781 C 180.84375 130.832031 182.523438 128.027344 181.539062 124.992188 C 180.597656 122.082031 178.082031 122.445312 178.058594 122.449219 L 178.054688 122.449219 C 178.027344 122.453125 178.011719 122.472656 178.007812 122.503906 C 178.003906 122.53125 178.019531 122.550781 178.046875 122.5625 C 179.144531 122.964844 179.886719 123.6875 180.25 124.710938 C 180.960938 126.71875 180.050781 129.382812 179.058594 131.050781 C 178.292969 132.328125 177.453125 133.167969 176.808594 133.296875 C 176.550781 133.347656 176.363281 133.277344 176.273438 133.09375 C 176.058594 132.65625 176.429688 131.699219 177.554688 130.726562 C 177.578125 130.707031 177.582031 130.6875 177.574219 130.660156 C 177.5625 130.636719 177.546875 130.625 177.519531 130.621094 C 177.375 130.621094 177.234375 130.632812 177.09375 130.660156 C 175.351562 131.007812 173.21875 133.613281 173.753906 137.601562 C 174.296875 141.660156 173.707031 144.921875 172.351562 145.359375 C 172.195312 145.421875 172.035156 145.425781 171.875 145.367188 C 171.714844 145.308594 171.59375 145.207031 171.515625 145.054688 C 171.046875 144.339844 171.160156 142.808594 171.75 141.96875 C 171.765625 141.945312 171.765625 141.925781 171.75 141.902344 C 171.738281 141.878906 171.71875 141.871094 171.691406 141.875 L 171.65625 141.878906 C 170.96875 142.015625 170.175781 143.140625 169.808594 144.492188 C 169.578125 145.339844 169.222656 147.457031 170.8125 148.914062 C 170.492188 149.292969 170.429688 149.703125 170.636719 150.074219 C 171.15625 151.003906 173.28125 151.636719 176.335938 151.050781 L 176.339844 151.050781 C 176.371094 151.042969 176.386719 151.023438 176.386719 150.988281 C 176.382812 150.953125 176.367188 150.9375 176.332031 150.933594 C 174.648438 150.417969 173.464844 148.863281 173.453125 147.785156 C 173.449219 147.472656 173.546875 147.0625 174.039062 146.90625 C 174.730469 146.683594 175.265625 147.179688 176.027344 147.890625 C 177.128906 148.914062 178.636719 150.320312 181.65625 150.605469 C 181.660156 150.605469 181.667969 150.601562 181.671875 150.601562 C 181.703125 150.597656 181.71875 150.582031 181.722656 150.550781 C 181.726562 150.519531 181.714844 150.5 181.683594 150.488281 C 178.816406 149.277344 177.0625 147.574219 176.320312 145.28125 Z M 191.890625 141.308594 C 195.347656 139.324219 194.109375 135.839844 193.417969 134.4375 C 192.933594 133.457031 192.84375 132.550781 193.15625 131.8125 C 193.449219 131.148438 193.945312 130.710938 194.640625 130.5 C 194.6875 130.484375 194.734375 130.472656 194.78125 130.464844 C 195.152344 130.382812 195.453125 130.492188 195.6875 130.785156 C 196.132812 131.304688 196.277344 132.324219 196.011719 133.0625 C 196.003906 133.09375 196.011719 133.113281 196.035156 133.132812 C 196.0625 133.148438 196.085938 133.148438 196.109375 133.128906 C 196.546875 132.757812 196.96875 131.332031 196.90625 129.589844 C 196.839844 127.707031 196.167969 124.140625 192.4375 121.425781 C 192.410156 121.40625 192.382812 121.40625 192.359375 121.4375 C 192.335938 121.460938 192.335938 121.488281 192.359375 121.515625 C 193.832031 123.132812 193.972656 125.210938 193.351562 126.425781 C 193.039062 127.039062 193 127.582031 193.25 127.914062 C 193.339844 128.03125 193.457031 128.109375 193.601562 128.148438 C 193.742188 128.1875 193.882812 128.183594 194.019531 128.132812 C 194.042969 128.125 194.066406 128.117188 194.089844 128.113281 C 194.320312 128.074219 194.503906 128.144531 194.648438 128.328125 C 194.878906 128.578125 194.9375 128.859375 194.828125 129.183594 C 194.714844 129.503906 194.488281 129.6875 194.152344 129.734375 C 193.703125 129.824219 193.246094 129.613281 193.132812 129.261719 C 193.019531 128.910156 192.691406 128.746094 192.277344 128.828125 C 191.769531 128.929688 191.273438 129.371094 190.945312 130.003906 C 190.207031 131.449219 190.308594 132.96875 190.390625 134.1875 C 190.480469 135.554688 190.542969 136.546875 189.527344 136.875 C 189.429688 136.90625 189.328125 136.933594 189.226562 136.953125 C 188.058594 137.183594 187.105469 136.535156 186.675781 135.210938 C 186.171875 133.65625 187.09375 132.152344 188.164062 130.410156 C 189.488281 128.25 190.988281 125.804688 189.972656 122.671875 C 188.601562 118.429688 185.238281 117.042969 182.699219 117.546875 C 182.433594 117.601562 182.175781 117.675781 181.925781 117.769531 C 181.894531 117.78125 181.878906 117.800781 181.886719 117.832031 C 181.890625 117.867188 181.910156 117.882812 181.941406 117.882812 C 183.246094 117.929688 184.507812 118.898438 185.234375 120.417969 C 186.53125 123.140625 185.824219 126.730469 183.34375 130.023438 C 179.46875 135.167969 176.390625 139.8125 177.929688 144.578125 C 179.585938 149.6875 185.078125 149.753906 185.132812 149.753906 C 185.136719 149.753906 185.136719 149.753906 185.140625 149.753906 C 185.167969 149.75 185.1875 149.734375 185.191406 149.707031 C 185.199219 149.671875 185.1875 149.652344 185.15625 149.640625 C 182.429688 148.527344 181.695312 146.421875 181.304688 144.316406 C 181.21875 143.847656 181.035156 143.507812 180.773438 143.332031 C 180.601562 143.210938 180.414062 143.171875 180.207031 143.214844 C 179.859375 143.285156 179.488281 143.605469 179.347656 144.175781 C 178.273438 140.375 181.089844 136.992188 183.578125 134.003906 C 184.363281 133.097656 185.097656 132.152344 185.789062 131.171875 C 185.589844 132.070312 185.320312 132.945312 184.980469 133.796875 C 184.394531 135.367188 183.890625 136.726562 184.457031 138.488281 C 185.007812 140.183594 186.035156 140.933594 187.429688 140.65625 C 187.71875 140.59375 188.003906 140.503906 188.277344 140.382812 C 188.613281 141.304688 188.054688 142.023438 187.355469 142.929688 C 186.375 144.195312 185.152344 145.773438 186.046875 148.621094 C 186.058594 148.652344 186.082031 148.664062 186.113281 148.660156 L 186.117188 148.660156 C 186.148438 148.652344 186.164062 148.632812 186.164062 148.601562 C 186.152344 145.90625 188.027344 143.523438 191.890625 141.308594 Z M 205.648438 131.175781 C 205.625 131.160156 205.601562 131.160156 205.578125 131.179688 C 205.554688 131.195312 205.550781 131.21875 205.558594 131.242188 C 206.230469 133.546875 205.785156 134.996094 205.292969 135.808594 C 204.832031 136.597656 204.15625 137.09375 203.261719 137.292969 C 202.289062 137.488281 201.40625 137.105469 201.015625 136.316406 C 201.003906 136.292969 200.980469 136.28125 200.949219 136.285156 C 200.917969 136.292969 200.902344 136.316406 200.90625 136.347656 C 200.964844 138.3125 199.226562 140.871094 197.507812 141.433594 C 199.085938 139.820312 200.003906 137.625 200.089844 135.226562 C 200.164062 133.179688 199.601562 131.136719 198.65625 130.027344 C 198.640625 130.003906 198.617188 130 198.585938 130.011719 C 198.558594 130.027344 198.546875 130.046875 198.554688 130.078125 C 199.175781 134.011719 198.058594 139.210938 193.050781 141.996094 C 191.164062 143.046875 186.855469 145.835938 187.570312 149.082031 C 187.578125 149.113281 187.597656 149.128906 187.628906 149.128906 C 187.632812 149.128906 187.636719 149.128906 187.640625 149.128906 C 187.664062 149.121094 187.679688 149.105469 187.6875 149.082031 C 188.234375 146.3125 190.851562 144.445312 195.691406 143.367188 C 198.121094 142.828125 199.375 141.855469 200.289062 141.148438 C 200.871094 140.695312 201.332031 140.335938 201.898438 140.222656 C 202.128906 140.179688 202.363281 140.175781 202.601562 140.210938 C 203.097656 140.28125 203.390625 140.621094 203.40625 141.144531 C 203.433594 142.125 202.414062 143.695312 200.425781 144.09375 C 200.195312 144.136719 199.960938 144.167969 199.722656 144.179688 C 198.617188 144.214844 197.519531 144.332031 196.429688 144.523438 C 194.742188 144.859375 193.660156 145.480469 193.125 146.417969 C 193.109375 146.449219 193.113281 146.472656 193.136719 146.492188 C 193.160156 146.515625 193.1875 146.515625 193.210938 146.496094 C 193.738281 146.113281 194.316406 145.863281 194.953125 145.742188 C 196.1875 145.496094 197.550781 145.730469 198.648438 145.917969 C 200.046875 146.160156 201.445312 146.144531 202.839844 145.875 C 203.597656 145.726562 204.324219 145.488281 205.023438 145.160156 C 207.445312 144.011719 209.015625 141.625 209.21875 138.777344 C 209.4375 135.699219 208.070312 132.785156 205.648438 131.175781 Z M 205.648438 131.175781 " fill-opacity="1" fill-rule="nonzero"/></g></g></g><g clip-path="url(#b5122a4101)"><g clip-path="url(#7df53d3de9)"><g clip-path="url(#cd81d02ead)"><path fill="#13322b" d="M 191.417969 154.371094 C 206.054688 151.457031 217.214844 145.546875 216.34375 141.167969 C 216.078125 139.839844 214.734375 138.808594 212.582031 138.09375 C 212.5 138.066406 212.441406 138.089844 212.40625 138.171875 C 212.375 138.257812 212.398438 138.316406 212.476562 138.355469 C 213.59375 138.898438 214.285156 139.589844 214.449219 140.421875 C 215.207031 144.222656 204.707031 149.519531 190.996094 152.253906 C 177.285156 154.984375 165.558594 154.113281 164.800781 150.3125 C 164.636719 149.480469 165.007812 148.578125 165.832031 147.648438 C 165.890625 147.582031 165.890625 147.515625 165.828125 147.453125 C 165.765625 147.390625 165.699219 147.386719 165.632812 147.445312 C 163.917969 148.929688 163.074219 150.398438 163.339844 151.726562 C 164.210938 156.105469 176.785156 157.289062 191.417969 154.371094 Z M 216.410156 144.953125 C 212.9375 149.183594 203.410156 153.574219 191.726562 155.902344 C 180.039062 158.230469 169.554688 157.824219 164.722656 155.25 C 164.664062 155.214844 164.609375 155.222656 164.558594 155.269531 C 164.511719 155.316406 164.5 155.367188 164.523438 155.429688 C 168.941406 165.878906 181.40625 171.984375 194.410156 169.390625 C 207.417969 166.800781 216.589844 156.386719 216.664062 145.042969 C 216.667969 144.976562 216.636719 144.929688 216.570312 144.90625 C 216.507812 144.882812 216.453125 144.898438 216.410156 144.953125 Z M 185.355469 158.929688 C 183.421875 159.945312 179.46875 160.59375 179.175781 162.054688 C 178.746094 164.179688 183.554688 166.691406 185.957031 167.605469 C 186.023438 167.632812 186.050781 167.683594 186.035156 167.753906 C 186.019531 167.824219 185.976562 167.859375 185.902344 167.855469 C 179.300781 167.488281 172.792969 164.480469 168.9375 158.972656 C 168.835938 158.824219 168.734375 158.675781 168.636719 158.523438 C 168.601562 158.476562 168.605469 158.429688 168.636719 158.378906 C 168.671875 158.332031 168.71875 158.316406 168.773438 158.332031 C 171.019531 158.902344 173.476562 159.121094 175.515625 159.195312 C 178.78125 159.292969 182.035156 159.121094 185.277344 158.6875 C 185.347656 158.679688 185.394531 158.707031 185.414062 158.777344 C 185.4375 158.84375 185.417969 158.894531 185.355469 158.929688 Z M 214.054688 149.476562 C 214.023438 149.652344 213.984375 149.828125 213.945312 150.003906 C 212.5 156.570312 207.640625 161.84375 201.683594 164.710938 C 201.617188 164.742188 201.5625 164.730469 201.519531 164.667969 C 201.480469 164.609375 201.484375 164.554688 201.539062 164.503906 C 203.40625 162.738281 206.882812 158.570312 205.675781 156.777344 C 204.84375 155.539062 200.945312 156.457031 198.769531 156.257812 C 198.699219 156.25 198.660156 156.210938 198.652344 156.140625 C 198.648438 156.070312 198.679688 156.023438 198.746094 156.003906 C 201.90625 155.164062 204.976562 154.074219 207.957031 152.734375 C 209.8125 151.886719 211.996094 150.742188 213.851562 149.351562 C 213.898438 149.316406 213.949219 149.3125 213.996094 149.34375 C 214.046875 149.375 214.066406 149.417969 214.054688 149.476562 Z M 214.054688 149.476562 " fill-opacity="1" fill-rule="evenodd"/></g></g></g><g fill="#fff1c5" fill-opacity="1"><g transform="translate(150.613041, 210.755545)"><g><path d="M 18.78125 -19.109375 C 19.394531 -16.753906 20.132812 -14.472656 21 -12.265625 C 21.875 -10.066406 22.878906 -7.953125 24.015625 -5.921875 C 23.328125 -5.523438 22.546875 -5.140625 21.671875 -4.765625 C 20.804688 -4.398438 19.820312 -4.039062 18.71875 -3.6875 C 18.25 -4.238281 17.796875 -4.800781 17.359375 -5.375 C 16.921875 -5.957031 16.492188 -6.554688 16.078125 -7.171875 C 15.460938 -5.785156 14.632812 -4.644531 13.59375 -3.75 C 12.5625 -2.851562 11.3125 -2.207031 9.84375 -1.8125 C 7.300781 -1.125 5.019531 -1.519531 3 -3 C 0.988281 -4.476562 -0.453125 -6.828125 -1.328125 -10.046875 C -2.628906 -14.878906 -2.5625 -19.269531 -1.125 -23.21875 C 0.3125 -27.175781 2.800781 -29.632812 6.34375 -30.59375 C 8.789062 -31.257812 10.945312 -31.078125 12.8125 -30.046875 C 14.675781 -29.015625 16.0625 -27.253906 16.96875 -24.765625 C 15.96875 -24.128906 14.878906 -23.554688 13.703125 -23.046875 C 12.523438 -22.535156 11.207031 -22.082031 9.75 -21.6875 C 8.976562 -23.34375 8.320312 -24.472656 7.78125 -25.078125 C 7.25 -25.679688 6.710938 -25.910156 6.171875 -25.765625 C 5.222656 -25.515625 4.722656 -24.351562 4.671875 -22.28125 C 4.617188 -20.21875 5.019531 -17.609375 5.875 -14.453125 C 6.519531 -12.035156 7.242188 -10.332031 8.046875 -9.34375 C 8.847656 -8.363281 9.789062 -8.019531 10.875 -8.3125 C 11.570312 -8.5 12.140625 -8.898438 12.578125 -9.515625 C 13.023438 -10.128906 13.3125 -10.90625 13.4375 -11.84375 C 13.113281 -12.582031 12.796875 -13.320312 12.484375 -14.0625 C 12.179688 -14.8125 11.898438 -15.554688 11.640625 -16.296875 C 12.554688 -16.847656 13.582031 -17.347656 14.71875 -17.796875 C 15.863281 -18.253906 17.21875 -18.691406 18.78125 -19.109375 Z M 18.78125 -19.109375 "/></g></g></g><g fill="#fff1c5" fill-opacity="1"><g transform="translate(172.290566, 204.904269)"><g><path d="M 7.59375 -9.953125 C 7.945312 -8.753906 8.347656 -7.523438 8.796875 -6.265625 C 9.253906 -5.015625 9.75 -3.769531 10.28125 -2.53125 C 9.71875 -2.144531 9.054688 -1.816406 8.296875 -1.546875 C 7.535156 -1.285156 6.691406 -1.078125 5.765625 -0.921875 C 5.222656 -0.847656 4.78125 -0.804688 4.4375 -0.796875 C 4.09375 -0.785156 3.753906 -0.796875 3.421875 -0.828125 C 2.035156 -3.566406 0.726562 -6.769531 -0.5 -10.4375 C -1.738281 -14.113281 -2.601562 -17.40625 -3.09375 -20.3125 C -2.582031 -20.613281 -2.015625 -20.890625 -1.390625 -21.140625 C -0.765625 -21.390625 -0.0859375 -21.601562 0.640625 -21.78125 C 1.484375 -22 2.285156 -22.140625 3.046875 -22.203125 C 3.804688 -22.265625 4.503906 -22.253906 5.140625 -22.171875 C 5.140625 -21.765625 5.160156 -21.296875 5.203125 -20.765625 C 5.253906 -20.242188 5.332031 -19.660156 5.4375 -19.015625 C 5.707031 -20.585938 6.1875 -21.890625 6.875 -22.921875 C 7.570312 -23.960938 8.394531 -24.601562 9.34375 -24.84375 C 10.738281 -25.195312 11.992188 -24.894531 13.109375 -23.9375 C 14.222656 -22.976562 15.035156 -21.476562 15.546875 -19.4375 C 15.628906 -19.09375 15.691406 -18.828125 15.734375 -18.640625 C 15.785156 -18.453125 15.816406 -18.28125 15.828125 -18.125 C 15.128906 -17.664062 14.210938 -17.238281 13.078125 -16.84375 C 11.941406 -16.445312 10.6875 -16.125 9.3125 -15.875 C 9.25 -16.257812 9.207031 -16.519531 9.1875 -16.65625 C 9.164062 -16.789062 9.140625 -16.921875 9.109375 -17.046875 C 8.953125 -17.671875 8.757812 -18.128906 8.53125 -18.421875 C 8.300781 -18.722656 8.035156 -18.835938 7.734375 -18.765625 C 7.253906 -18.640625 7 -17.804688 6.96875 -16.265625 C 6.9375 -14.722656 7.144531 -12.617188 7.59375 -9.953125 Z M 7.59375 -9.953125 "/></g></g></g><g fill="#fff1c5" fill-opacity="1"><g transform="translate(189.466607, 200.626271)"><g><path d="M 0.921875 -30.140625 C 1.671875 -30.316406 2.382812 -30.421875 3.0625 -30.453125 C 3.738281 -30.484375 4.328125 -30.4375 4.828125 -30.3125 C 4.734375 -29.738281 4.664062 -28.910156 4.625 -27.828125 C 4.59375 -26.742188 4.601562 -25.800781 4.65625 -25 C 3.84375 -24.65625 2.914062 -24.328125 1.875 -24.015625 C 0.84375 -23.703125 -0.332031 -23.398438 -1.65625 -23.109375 C -1.96875 -23.609375 -2.226562 -24.125 -2.4375 -24.65625 C -2.65625 -25.1875 -2.828125 -25.71875 -2.953125 -26.25 C -3.046875 -26.644531 -3.109375 -26.992188 -3.140625 -27.296875 C -3.171875 -27.609375 -3.179688 -27.90625 -3.171875 -28.1875 C -2.671875 -28.644531 -2.082031 -29.03125 -1.40625 -29.34375 C -0.726562 -29.664062 0.046875 -29.929688 0.921875 -30.140625 Z M -2.0625 -19.453125 C -1.488281 -20.015625 -0.773438 -20.5 0.078125 -20.90625 C 0.929688 -21.320312 1.878906 -21.65625 2.921875 -21.90625 C 3.429688 -22.03125 3.9375 -22.125 4.4375 -22.1875 C 4.945312 -22.25 5.425781 -22.296875 5.875 -22.328125 C 5.71875 -20.566406 5.851562 -17.863281 6.28125 -14.21875 C 6.707031 -10.582031 7.34375 -6.628906 8.1875 -2.359375 C 7.726562 -1.960938 7.109375 -1.585938 6.328125 -1.234375 C 5.554688 -0.890625 4.734375 -0.613281 3.859375 -0.40625 C 3.484375 -0.3125 3.15625 -0.242188 2.875 -0.203125 C 2.59375 -0.171875 2.347656 -0.15625 2.140625 -0.15625 C 0.921875 -3.632812 -0.046875 -7.023438 -0.765625 -10.328125 C -1.492188 -13.628906 -1.925781 -16.671875 -2.0625 -19.453125 Z M -2.0625 -19.453125 "/></g></g></g><g fill="#fff1c5" fill-opacity="1"><g transform="translate(198.742975, 198.423742)"><g><path d="M 9.96875 -0.59375 C 9.363281 -0.25 8.429688 0.140625 7.171875 0.578125 C 5.921875 1.023438 4.773438 1.367188 3.734375 1.609375 C 2.390625 -2.585938 0.972656 -7.378906 -0.515625 -12.765625 C -2.003906 -18.160156 -3.210938 -22.910156 -4.140625 -27.015625 C -3.648438 -27.554688 -3 -28.035156 -2.1875 -28.453125 C -1.382812 -28.867188 -0.519531 -29.179688 0.40625 -29.390625 C 1.101562 -29.554688 1.75 -29.664062 2.34375 -29.71875 C 2.945312 -29.769531 3.550781 -29.785156 4.15625 -29.765625 C 4.507812 -27.179688 5.234375 -23.128906 6.328125 -17.609375 C 7.429688 -12.097656 8.644531 -6.425781 9.96875 -0.59375 Z M 9.96875 -0.59375 "/></g></g></g><g fill="#fff1c5" fill-opacity="1"><g transform="translate(208.487993, 196.205918)"><g><path d="M 9.984375 -0.5 C 9.367188 -0.164062 8.429688 0.21875 7.171875 0.65625 C 5.910156 1.09375 4.753906 1.425781 3.703125 1.65625 C 2.398438 -2.570312 1.03125 -7.382812 -0.40625 -12.78125 C -1.84375 -18.1875 -3.003906 -22.941406 -3.890625 -27.046875 C -3.398438 -27.585938 -2.742188 -28.0625 -1.921875 -28.46875 C -1.109375 -28.882812 -0.238281 -29.191406 0.6875 -29.390625 C 1.382812 -29.546875 2.03125 -29.644531 2.625 -29.6875 C 3.226562 -29.738281 3.832031 -29.75 4.4375 -29.71875 C 4.757812 -27.132812 5.445312 -23.082031 6.5 -17.5625 C 7.550781 -12.039062 8.710938 -6.351562 9.984375 -0.5 Z M 9.984375 -0.5 "/></g></g></g><g fill="#fff1c5" fill-opacity="1"><g transform="translate(218.255882, 194.080686)"><g><path d="M 1.75 -30.09375 C 2.5 -30.25 3.210938 -30.332031 3.890625 -30.34375 C 4.578125 -30.351562 5.171875 -30.289062 5.671875 -30.15625 C 5.554688 -29.582031 5.46875 -28.753906 5.40625 -27.671875 C 5.34375 -26.597656 5.320312 -25.660156 5.34375 -24.859375 C 4.519531 -24.523438 3.585938 -24.21875 2.546875 -23.9375 C 1.503906 -23.664062 0.316406 -23.40625 -1.015625 -23.15625 C -1.316406 -23.65625 -1.566406 -24.175781 -1.765625 -24.71875 C -1.960938 -25.257812 -2.113281 -25.796875 -2.21875 -26.328125 C -2.300781 -26.722656 -2.351562 -27.078125 -2.375 -27.390625 C -2.394531 -27.703125 -2.398438 -27.992188 -2.390625 -28.265625 C -1.878906 -28.710938 -1.28125 -29.082031 -0.59375 -29.375 C 0.0820312 -29.675781 0.863281 -29.914062 1.75 -30.09375 Z M -1.515625 -19.5 C -0.929688 -20.039062 -0.207031 -20.503906 0.65625 -20.890625 C 1.53125 -21.285156 2.492188 -21.59375 3.546875 -21.8125 C 4.046875 -21.914062 4.546875 -21.992188 5.046875 -22.046875 C 5.546875 -22.097656 6.035156 -22.132812 6.515625 -22.15625 C 6.296875 -20.40625 6.347656 -17.703125 6.671875 -14.046875 C 6.992188 -10.398438 7.523438 -6.425781 8.265625 -2.125 C 7.785156 -1.75 7.148438 -1.394531 6.359375 -1.0625 C 5.578125 -0.726562 4.75 -0.472656 3.875 -0.296875 C 3.5 -0.222656 3.164062 -0.164062 2.875 -0.125 C 2.59375 -0.09375 2.347656 -0.0820312 2.140625 -0.09375 C 1.023438 -3.601562 0.15625 -7.019531 -0.46875 -10.34375 C -1.101562 -13.664062 -1.453125 -16.71875 -1.515625 -19.5 Z M -1.515625 -19.5 "/></g></g></g><g fill="#fff1c5" fill-opacity="1"><g transform="translate(141.342592, 245.210728)"><g><path d="M 5.15625 2.921875 C 4.75 2.753906 4.363281 2.566406 4 2.359375 C 3.632812 2.160156 3.238281 1.90625 2.8125 1.59375 C 3.613281 0.476562 4.445312 -0.742188 5.3125 -2.078125 C 6.175781 -3.421875 6.894531 -4.601562 7.46875 -5.625 C 7.363281 -5.695312 7.148438 -5.820312 6.828125 -6 C 6.515625 -6.1875 6.09375 -6.429688 5.5625 -6.734375 C 5.65625 -7.085938 5.78125 -7.429688 5.9375 -7.765625 C 6.09375 -8.109375 6.269531 -8.421875 6.46875 -8.703125 C 7.738281 -8.160156 8.910156 -7.585938 9.984375 -6.984375 C 11.054688 -6.378906 12.21875 -5.625 13.46875 -4.71875 C 13.414062 -4.5625 13.335938 -4.390625 13.234375 -4.203125 C 13.128906 -4.015625 13.003906 -3.816406 12.859375 -3.609375 C 12.753906 -3.460938 12.628906 -3.3125 12.484375 -3.15625 C 12.347656 -3.007812 12.179688 -2.847656 11.984375 -2.671875 C 11.679688 -2.878906 11.382812 -3.085938 11.09375 -3.296875 C 10.8125 -3.503906 10.523438 -3.703125 10.234375 -3.890625 C 9.898438 -3.378906 9.550781 -2.847656 9.1875 -2.296875 C 8.820312 -1.753906 8.4375 -1.195312 8.03125 -0.625 C 7.644531 -0.101562 7.21875 0.453125 6.75 1.046875 C 6.28125 1.640625 5.75 2.265625 5.15625 2.921875 Z M 5.15625 2.921875 "/></g></g></g><g fill="#fff1c5" fill-opacity="1"><g transform="translate(148.674072, 250.503343)"><g><path d="M 8.3125 5.453125 C 7.90625 5.484375 7.453125 5.445312 6.953125 5.34375 C 6.460938 5.25 5.910156 5.082031 5.296875 4.84375 C 5.523438 4.289062 5.75 3.707031 5.96875 3.09375 C 6.1875 2.488281 6.382812 1.851562 6.5625 1.1875 C 6.007812 0.894531 5.503906 0.640625 5.046875 0.421875 C 4.597656 0.210938 4.164062 0.03125 3.75 -0.125 C 3.394531 0.1875 3.046875 0.476562 2.703125 0.75 C 2.367188 1.019531 2.050781 1.257812 1.75 1.46875 C 1.351562 1.175781 1.023438 0.828125 0.765625 0.421875 C 0.503906 0.015625 0.34375 -0.382812 0.28125 -0.78125 C 1.601562 -1.644531 2.851562 -2.570312 4.03125 -3.5625 C 5.207031 -4.550781 6.582031 -5.859375 8.15625 -7.484375 C 8.570312 -7.253906 8.941406 -7.023438 9.265625 -6.796875 C 9.585938 -6.566406 9.929688 -6.289062 10.296875 -5.96875 C 10.390625 -4.375 10.265625 -2.601562 9.921875 -0.65625 C 9.585938 1.289062 9.050781 3.328125 8.3125 5.453125 Z M 7.625 -3.9375 C 7.269531 -3.570312 6.894531 -3.1875 6.5 -2.78125 C 6.113281 -2.382812 5.707031 -1.984375 5.28125 -1.578125 C 5.601562 -1.460938 5.90625 -1.335938 6.1875 -1.203125 C 6.476562 -1.078125 6.773438 -0.941406 7.078125 -0.796875 C 7.191406 -1.359375 7.289062 -1.898438 7.375 -2.421875 C 7.46875 -2.941406 7.550781 -3.445312 7.625 -3.9375 Z M 7.625 -3.9375 "/></g></g></g><g fill="#fff1c5" fill-opacity="1"><g transform="translate(157.834096, 255.394858)"><g><path d="M 8.46875 -2.09375 C 8.570312 -1.707031 8.609375 -1.328125 8.578125 -0.953125 C 8.546875 -0.585938 8.457031 -0.222656 8.3125 0.140625 C 7.945312 1.078125 7.300781 1.71875 6.375 2.0625 C 5.457031 2.414062 4.503906 2.398438 3.515625 2.015625 C 2.429688 1.585938 1.65625 0.894531 1.1875 -0.0625 C 0.726562 -1.019531 0.679688 -1.957031 1.046875 -2.875 C 1.390625 -2.90625 1.789062 -2.890625 2.25 -2.828125 C 2.707031 -2.773438 3.078125 -2.695312 3.359375 -2.59375 C 3.085938 -1.894531 3 -1.28125 3.09375 -0.75 C 3.1875 -0.226562 3.457031 0.117188 3.90625 0.296875 C 4.226562 0.421875 4.507812 0.429688 4.75 0.328125 C 4.988281 0.222656 5.171875 0.015625 5.296875 -0.296875 C 5.398438 -0.566406 5.410156 -0.863281 5.328125 -1.1875 C 5.253906 -1.507812 5.003906 -2.023438 4.578125 -2.734375 C 4.253906 -3.265625 4.023438 -3.675781 3.890625 -3.96875 C 3.753906 -4.269531 3.644531 -4.546875 3.5625 -4.796875 C 3.46875 -5.203125 3.429688 -5.59375 3.453125 -5.96875 C 3.472656 -6.34375 3.5625 -6.722656 3.71875 -7.109375 C 4.070312 -8.015625 4.691406 -8.625 5.578125 -8.9375 C 6.460938 -9.257812 7.429688 -9.21875 8.484375 -8.8125 C 9.429688 -8.4375 10.097656 -7.910156 10.484375 -7.234375 C 10.867188 -6.554688 10.984375 -5.738281 10.828125 -4.78125 C 10.492188 -4.71875 10.140625 -4.703125 9.765625 -4.734375 C 9.390625 -4.765625 8.921875 -4.875 8.359375 -5.0625 C 8.492188 -5.65625 8.515625 -6.113281 8.421875 -6.4375 C 8.328125 -6.757812 8.109375 -6.988281 7.765625 -7.125 C 7.554688 -7.207031 7.363281 -7.207031 7.1875 -7.125 C 7.019531 -7.039062 6.890625 -6.882812 6.796875 -6.65625 C 6.679688 -6.363281 6.660156 -6.039062 6.734375 -5.6875 C 6.816406 -5.34375 7.078125 -4.820312 7.515625 -4.125 C 7.828125 -3.59375 8.046875 -3.1875 8.171875 -2.90625 C 8.304688 -2.625 8.40625 -2.351562 8.46875 -2.09375 Z M 8.46875 -2.09375 "/></g></g></g><g fill="#fff1c5" fill-opacity="1"><g transform="translate(165.923702, 258.559073)"><g><path d="M 5.859375 0.890625 C 5.421875 0.878906 4.992188 0.84375 4.578125 0.78125 C 4.160156 0.726562 3.703125 0.632812 3.203125 0.5 C 3.554688 -0.832031 3.894531 -2.28125 4.21875 -3.84375 C 4.550781 -5.40625 4.800781 -6.757812 4.96875 -7.90625 C 4.84375 -7.945312 4.597656 -7.992188 4.234375 -8.046875 C 3.878906 -8.109375 3.40625 -8.179688 2.8125 -8.265625 C 2.769531 -8.640625 2.757812 -9.007812 2.78125 -9.375 C 2.8125 -9.75 2.875 -10.101562 2.96875 -10.4375 C 4.34375 -10.382812 5.632812 -10.265625 6.84375 -10.078125 C 8.0625 -9.898438 9.414062 -9.609375 10.90625 -9.203125 C 10.914062 -9.023438 10.90625 -8.832031 10.875 -8.625 C 10.84375 -8.414062 10.796875 -8.191406 10.734375 -7.953125 C 10.679688 -7.773438 10.613281 -7.585938 10.53125 -7.390625 C 10.457031 -7.191406 10.359375 -6.984375 10.234375 -6.765625 C 9.890625 -6.859375 9.546875 -6.945312 9.203125 -7.03125 C 8.859375 -7.125 8.515625 -7.207031 8.171875 -7.28125 C 8.046875 -6.675781 7.910156 -6.054688 7.765625 -5.421875 C 7.617188 -4.785156 7.457031 -4.128906 7.28125 -3.453125 C 7.113281 -2.828125 6.910156 -2.15625 6.671875 -1.4375 C 6.441406 -0.71875 6.171875 0.0546875 5.859375 0.890625 Z M 5.859375 0.890625 "/></g></g></g><g fill="#fff1c5" fill-opacity="1"><g transform="translate(174.639305, 260.863377)"><g><path d="M 8.4375 1.34375 C 8.132812 1.394531 7.210938 1.367188 5.671875 1.265625 C 4.128906 1.171875 2.847656 1.050781 1.828125 0.90625 C 1.804688 -0.675781 1.835938 -2.507812 1.921875 -4.59375 C 2.015625 -6.6875 2.148438 -8.425781 2.328125 -9.8125 C 3.878906 -9.875 5.210938 -9.882812 6.328125 -9.84375 C 7.453125 -9.8125 8.539062 -9.722656 9.59375 -9.578125 C 9.539062 -9.210938 9.460938 -8.832031 9.359375 -8.4375 C 9.265625 -8.039062 9.144531 -7.632812 9 -7.21875 C 8.457031 -7.300781 7.890625 -7.367188 7.296875 -7.421875 C 6.710938 -7.484375 6.09375 -7.539062 5.4375 -7.59375 C 5.382812 -7.375 5.332031 -7.125 5.28125 -6.84375 C 5.238281 -6.570312 5.175781 -6.164062 5.09375 -5.625 C 5.613281 -5.695312 6.125 -5.726562 6.625 -5.71875 C 7.132812 -5.71875 7.644531 -5.679688 8.15625 -5.609375 C 8.1875 -5.253906 8.195312 -4.894531 8.1875 -4.53125 C 8.175781 -4.164062 8.132812 -3.738281 8.0625 -3.25 C 7.507812 -3.332031 6.957031 -3.394531 6.40625 -3.4375 C 5.863281 -3.488281 5.328125 -3.519531 4.796875 -3.53125 C 4.734375 -3.09375 4.679688 -2.660156 4.640625 -2.234375 C 4.609375 -1.816406 4.585938 -1.421875 4.578125 -1.046875 C 4.859375 -1.003906 5.457031 -0.972656 6.375 -0.953125 C 7.300781 -0.929688 8 -0.9375 8.46875 -0.96875 C 8.519531 -0.75 8.539062 -0.40625 8.53125 0.0625 C 8.519531 0.539062 8.488281 0.96875 8.4375 1.34375 Z M 8.4375 1.34375 "/></g></g></g><g fill="#fff1c5" fill-opacity="1"><g transform="translate(183.847209, 262.036447)"><g/></g></g><g fill="#fff1c5" fill-opacity="1"><g transform="translate(187.375521, 262.326249)"><g><path d="M 7.015625 -5.1875 C 7.253906 -4.875 7.429688 -4.539062 7.546875 -4.1875 C 7.660156 -3.84375 7.722656 -3.472656 7.734375 -3.078125 C 7.753906 -2.066406 7.40625 -1.21875 6.6875 -0.53125 C 5.976562 0.144531 5.09375 0.492188 4.03125 0.515625 C 2.863281 0.535156 1.878906 0.191406 1.078125 -0.515625 C 0.285156 -1.222656 -0.117188 -2.070312 -0.140625 -3.0625 C 0.171875 -3.226562 0.546875 -3.367188 0.984375 -3.484375 C 1.429688 -3.609375 1.804688 -3.675781 2.109375 -3.6875 C 2.128906 -2.9375 2.28125 -2.335938 2.5625 -1.890625 C 2.84375 -1.441406 3.226562 -1.222656 3.71875 -1.234375 C 4.0625 -1.242188 4.320312 -1.34375 4.5 -1.53125 C 4.6875 -1.71875 4.773438 -1.976562 4.765625 -2.3125 C 4.765625 -2.601562 4.664062 -2.882812 4.46875 -3.15625 C 4.269531 -3.425781 3.832031 -3.800781 3.15625 -4.28125 C 2.664062 -4.644531 2.300781 -4.9375 2.0625 -5.15625 C 1.820312 -5.375 1.613281 -5.59375 1.4375 -5.8125 C 1.195312 -6.144531 1.015625 -6.488281 0.890625 -6.84375 C 0.765625 -7.195312 0.703125 -7.578125 0.703125 -7.984375 C 0.679688 -8.960938 1.015625 -9.769531 1.703125 -10.40625 C 2.390625 -11.039062 3.300781 -11.367188 4.4375 -11.390625 C 5.445312 -11.410156 6.265625 -11.1875 6.890625 -10.71875 C 7.515625 -10.25 7.9375 -9.535156 8.15625 -8.578125 C 7.863281 -8.390625 7.539062 -8.238281 7.1875 -8.125 C 6.832031 -8.019531 6.359375 -7.941406 5.765625 -7.890625 C 5.671875 -8.492188 5.515625 -8.925781 5.296875 -9.1875 C 5.085938 -9.445312 4.800781 -9.570312 4.4375 -9.5625 C 4.207031 -9.5625 4.023438 -9.488281 3.890625 -9.34375 C 3.765625 -9.195312 3.707031 -9.003906 3.71875 -8.765625 C 3.71875 -8.441406 3.816406 -8.132812 4.015625 -7.84375 C 4.222656 -7.5625 4.664062 -7.175781 5.34375 -6.6875 C 5.84375 -6.332031 6.207031 -6.046875 6.4375 -5.828125 C 6.664062 -5.617188 6.859375 -5.40625 7.015625 -5.1875 Z M 7.015625 -5.1875 "/></g></g></g><g fill="#fff1c5" fill-opacity="1"><g transform="translate(196.071558, 262.143111)"><g><path d="M 8.46875 -1.03125 C 8.195312 -0.894531 7.304688 -0.660156 5.796875 -0.328125 C 4.296875 -0.00390625 3.035156 0.226562 2.015625 0.375 C 1.554688 -1.144531 1.082031 -2.921875 0.59375 -4.953125 C 0.101562 -6.992188 -0.242188 -8.695312 -0.453125 -10.0625 C 1.015625 -10.5625 2.289062 -10.945312 3.375 -11.21875 C 4.46875 -11.488281 5.539062 -11.695312 6.59375 -11.84375 C 6.644531 -11.488281 6.675781 -11.109375 6.6875 -10.703125 C 6.695312 -10.296875 6.6875 -9.863281 6.65625 -9.40625 C 6.113281 -9.332031 5.550781 -9.242188 4.96875 -9.140625 C 4.394531 -9.046875 3.785156 -8.929688 3.140625 -8.796875 C 3.148438 -8.578125 3.171875 -8.328125 3.203125 -8.046875 C 3.234375 -7.765625 3.285156 -7.347656 3.359375 -6.796875 C 3.835938 -7.015625 4.316406 -7.191406 4.796875 -7.328125 C 5.285156 -7.460938 5.789062 -7.566406 6.3125 -7.640625 C 6.4375 -7.304688 6.539062 -6.960938 6.625 -6.609375 C 6.707031 -6.253906 6.785156 -5.832031 6.859375 -5.34375 C 6.304688 -5.269531 5.757812 -5.175781 5.21875 -5.0625 C 4.6875 -4.957031 4.160156 -4.835938 3.640625 -4.703125 C 3.703125 -4.265625 3.769531 -3.835938 3.84375 -3.421875 C 3.925781 -3.015625 4.015625 -2.628906 4.109375 -2.265625 C 4.390625 -2.296875 4.972656 -2.425781 5.859375 -2.65625 C 6.753906 -2.894531 7.425781 -3.097656 7.875 -3.265625 C 7.988281 -3.066406 8.101562 -2.738281 8.21875 -2.28125 C 8.332031 -1.820312 8.414062 -1.40625 8.46875 -1.03125 Z M 8.46875 -1.03125 "/></g></g></g><g fill="#fff1c5" fill-opacity="1"><g transform="translate(205.465749, 260.85684)"><g><path d="M 3.0625 -3.421875 L 3.8125 -0.671875 C 3.59375 -0.523438 3.253906 -0.363281 2.796875 -0.1875 C 2.347656 -0.0078125 1.9375 0.128906 1.5625 0.234375 C 0.8125 -1.765625 0.160156 -3.597656 -0.390625 -5.265625 C -0.941406 -6.929688 -1.382812 -8.351562 -1.71875 -9.53125 C -1.664062 -9.582031 -1.625 -9.625 -1.59375 -9.65625 C -1.5625 -9.6875 -1.53125 -9.71875 -1.5 -9.75 C -1.175781 -10.050781 -0.789062 -10.328125 -0.34375 -10.578125 C 0.09375 -10.828125 0.578125 -11.03125 1.109375 -11.1875 C 1.910156 -10.519531 2.632812 -9.847656 3.28125 -9.171875 C 3.925781 -8.503906 4.554688 -7.773438 5.171875 -6.984375 C 4.859375 -8.117188 4.550781 -9.117188 4.25 -9.984375 C 3.957031 -10.859375 3.703125 -11.5625 3.484375 -12.09375 C 3.921875 -12.394531 4.367188 -12.648438 4.828125 -12.859375 C 5.285156 -13.078125 5.753906 -13.253906 6.234375 -13.390625 C 6.421875 -12.847656 6.585938 -12.328125 6.734375 -11.828125 C 6.878906 -11.335938 7.019531 -10.851562 7.15625 -10.375 C 7.476562 -9.207031 7.785156 -7.976562 8.078125 -6.6875 C 8.378906 -5.40625 8.648438 -4.164062 8.890625 -2.96875 C 8.316406 -2.707031 7.847656 -2.503906 7.484375 -2.359375 C 7.117188 -2.210938 6.753906 -2.078125 6.390625 -1.953125 C 5.390625 -3.242188 4.578125 -4.238281 3.953125 -4.9375 C 3.335938 -5.632812 2.734375 -6.253906 2.140625 -6.796875 C 2.234375 -6.410156 2.34375 -5.984375 2.46875 -5.515625 C 2.601562 -5.046875 2.800781 -4.347656 3.0625 -3.421875 Z M 3.0625 -3.421875 "/></g></g></g><g fill="#fff1c5" fill-opacity="1"><g transform="translate(215.985149, 257.840994)"><g><path d="M 4.609375 -7.40625 C 4.953125 -7.195312 5.238281 -6.953125 5.46875 -6.671875 C 5.707031 -6.390625 5.90625 -6.066406 6.0625 -5.703125 C 6.445312 -4.773438 6.429688 -3.863281 6.015625 -2.96875 C 5.609375 -2.070312 4.914062 -1.414062 3.9375 -1 C 2.863281 -0.550781 1.820312 -0.507812 0.8125 -0.875 C -0.1875 -1.238281 -0.878906 -1.878906 -1.265625 -2.796875 C -1.035156 -3.066406 -0.734375 -3.335938 -0.359375 -3.609375 C 0.00390625 -3.890625 0.328125 -4.085938 0.609375 -4.203125 C 0.898438 -3.503906 1.257812 -3 1.6875 -2.6875 C 2.113281 -2.382812 2.550781 -2.328125 3 -2.515625 C 3.320312 -2.648438 3.53125 -2.835938 3.625 -3.078125 C 3.71875 -3.316406 3.703125 -3.59375 3.578125 -3.90625 C 3.460938 -4.175781 3.265625 -4.398438 2.984375 -4.578125 C 2.710938 -4.753906 2.175781 -4.941406 1.375 -5.140625 C 0.769531 -5.296875 0.316406 -5.429688 0.015625 -5.546875 C -0.285156 -5.671875 -0.554688 -5.800781 -0.796875 -5.9375 C -1.148438 -6.15625 -1.445312 -6.40625 -1.6875 -6.6875 C -1.925781 -6.96875 -2.125 -7.296875 -2.28125 -7.671875 C -2.664062 -8.578125 -2.65625 -9.453125 -2.25 -10.296875 C -1.84375 -11.148438 -1.113281 -11.796875 -0.0625 -12.234375 C 0.863281 -12.617188 1.703125 -12.707031 2.453125 -12.5 C 3.210938 -12.289062 3.867188 -11.78125 4.421875 -10.96875 C 4.222656 -10.6875 3.976562 -10.429688 3.6875 -10.203125 C 3.394531 -9.972656 2.984375 -9.722656 2.453125 -9.453125 C 2.140625 -9.984375 1.832031 -10.328125 1.53125 -10.484375 C 1.238281 -10.648438 0.925781 -10.664062 0.59375 -10.53125 C 0.382812 -10.4375 0.25 -10.296875 0.1875 -10.109375 C 0.125 -9.929688 0.140625 -9.734375 0.234375 -9.515625 C 0.359375 -9.210938 0.566406 -8.960938 0.859375 -8.765625 C 1.160156 -8.578125 1.710938 -8.382812 2.515625 -8.1875 C 3.109375 -8.039062 3.550781 -7.910156 3.84375 -7.796875 C 4.132812 -7.679688 4.390625 -7.550781 4.609375 -7.40625 Z M 4.609375 -7.40625 "/></g></g></g><g fill="#fff1c5" fill-opacity="1"><g transform="translate(224.039299, 254.485032)"><g><path d="M 9 -4.234375 C 8.8125 -3.859375 8.546875 -3.484375 8.203125 -3.109375 C 7.859375 -2.742188 7.425781 -2.367188 6.90625 -1.984375 C 6.5625 -2.453125 6.179688 -2.941406 5.765625 -3.453125 C 5.359375 -3.972656 4.914062 -4.476562 4.4375 -4.96875 C 3.90625 -4.644531 3.429688 -4.34375 3.015625 -4.0625 C 2.597656 -3.789062 2.210938 -3.523438 1.859375 -3.265625 C 1.941406 -2.796875 2.007812 -2.34375 2.0625 -1.90625 C 2.113281 -1.476562 2.148438 -1.078125 2.171875 -0.703125 C 1.710938 -0.523438 1.238281 -0.429688 0.75 -0.421875 C 0.269531 -0.410156 -0.148438 -0.484375 -0.515625 -0.640625 C -0.554688 -2.234375 -0.6875 -3.789062 -0.90625 -5.3125 C -1.132812 -6.832031 -1.53125 -8.679688 -2.09375 -10.859375 C -1.675781 -11.097656 -1.285156 -11.296875 -0.921875 -11.453125 C -0.566406 -11.609375 -0.160156 -11.753906 0.296875 -11.890625 C 1.722656 -11.140625 3.175781 -10.109375 4.65625 -8.796875 C 6.132812 -7.492188 7.582031 -5.972656 9 -4.234375 Z M 0.640625 -8.546875 C 0.773438 -8.054688 0.910156 -7.539062 1.046875 -7 C 1.179688 -6.457031 1.3125 -5.898438 1.4375 -5.328125 C 1.695312 -5.535156 1.957031 -5.726562 2.21875 -5.90625 C 2.488281 -6.09375 2.757812 -6.269531 3.03125 -6.4375 C 2.613281 -6.832031 2.207031 -7.207031 1.8125 -7.5625 C 1.414062 -7.914062 1.023438 -8.242188 0.640625 -8.546875 Z M 0.640625 -8.546875 "/></g></g></g><g fill="#fff1c5" fill-opacity="1"><g transform="translate(233.016997, 249.248627)"><g><path d="M 4.3125 -4.0625 C 4.03125 -3.71875 3.738281 -3.398438 3.4375 -3.109375 C 3.132812 -2.828125 2.773438 -2.53125 2.359375 -2.21875 C 1.523438 -3.3125 0.597656 -4.46875 -0.421875 -5.6875 C -1.441406 -6.90625 -2.359375 -7.941406 -3.171875 -8.796875 C -3.265625 -8.710938 -3.445312 -8.546875 -3.71875 -8.296875 C -3.988281 -8.046875 -4.34375 -7.710938 -4.78125 -7.296875 C -5.09375 -7.503906 -5.382812 -7.734375 -5.65625 -7.984375 C -5.9375 -8.234375 -6.179688 -8.492188 -6.390625 -8.765625 C -5.492188 -9.816406 -4.597656 -10.765625 -3.703125 -11.609375 C -2.816406 -12.453125 -1.757812 -13.335938 -0.53125 -14.265625 C -0.394531 -14.160156 -0.25 -14.03125 -0.09375 -13.875 C 0.0507812 -13.71875 0.195312 -13.539062 0.34375 -13.34375 C 0.457031 -13.207031 0.566406 -13.046875 0.671875 -12.859375 C 0.773438 -12.679688 0.878906 -12.472656 0.984375 -12.234375 C 0.691406 -12.003906 0.398438 -11.78125 0.109375 -11.5625 C -0.171875 -11.351562 -0.441406 -11.144531 -0.703125 -10.9375 C -0.304688 -10.457031 0.0976562 -9.960938 0.515625 -9.453125 C 0.929688 -8.941406 1.347656 -8.410156 1.765625 -7.859375 C 2.160156 -7.335938 2.566406 -6.765625 2.984375 -6.140625 C 3.410156 -5.523438 3.851562 -4.832031 4.3125 -4.0625 Z M 4.3125 -4.0625 "/></g></g></g><g fill="#fff1c5" fill-opacity="1"><g transform="translate(240.061639, 243.805419)"><g><path d="M -2.25 -8.4375 C -1.351562 -7.445312 -0.4375 -6.394531 0.5 -5.28125 C 1.445312 -4.164062 2.226562 -3.195312 2.84375 -2.375 C 2.695312 -2.113281 2.46875 -1.800781 2.15625 -1.4375 C 1.84375 -1.082031 1.535156 -0.769531 1.234375 -0.5 C -0.140625 -2.019531 -1.421875 -3.367188 -2.609375 -4.546875 C -3.804688 -5.722656 -4.925781 -6.75 -5.96875 -7.625 C -5.894531 -7.894531 -5.769531 -8.171875 -5.59375 -8.453125 C -5.414062 -8.734375 -5.195312 -8.992188 -4.9375 -9.234375 C -4.726562 -9.421875 -4.539062 -9.570312 -4.375 -9.6875 C -4.207031 -9.8125 -4 -9.9375 -3.75 -10.0625 C -3.550781 -9.832031 -3.320312 -9.582031 -3.0625 -9.3125 C -2.800781 -9.039062 -2.53125 -8.75 -2.25 -8.4375 Z M -2.25 -8.4375 "/></g></g></g><g fill="#fff1c5" fill-opacity="1"><g transform="translate(244.023702, 240.33064)"><g><path d="M -4.390625 -11.265625 C -3.597656 -12.140625 -2.695312 -12.554688 -1.6875 -12.515625 C -0.6875 -12.484375 0.335938 -11.992188 1.390625 -11.046875 C 1.953125 -10.535156 2.457031 -9.9375 2.90625 -9.25 C 3.351562 -8.5625 3.679688 -7.878906 3.890625 -7.203125 C 4.128906 -6.378906 4.171875 -5.597656 4.015625 -4.859375 C 3.859375 -4.117188 3.507812 -3.445312 2.96875 -2.84375 C 2.175781 -1.96875 1.222656 -1.59375 0.109375 -1.71875 C -1.003906 -1.851562 -2.132812 -2.4375 -3.28125 -3.46875 C -4.601562 -4.65625 -5.367188 -5.972656 -5.578125 -7.421875 C -5.785156 -8.867188 -5.390625 -10.148438 -4.390625 -11.265625 Z M 1.96875 -4.609375 C 2.257812 -4.929688 2.25 -5.375 1.9375 -5.9375 C 1.632812 -6.507812 0.960938 -7.265625 -0.078125 -8.203125 C -0.972656 -9.015625 -1.671875 -9.519531 -2.171875 -9.71875 C -2.679688 -9.914062 -3.085938 -9.84375 -3.390625 -9.5 C -3.691406 -9.164062 -3.679688 -8.691406 -3.359375 -8.078125 C -3.046875 -7.460938 -2.453125 -6.765625 -1.578125 -5.984375 C -0.742188 -5.222656 -0.0195312 -4.722656 0.59375 -4.484375 C 1.21875 -4.242188 1.675781 -4.285156 1.96875 -4.609375 Z M 1.96875 -4.609375 "/></g></g></g><g fill="#fff1c5" fill-opacity="1"><g transform="translate(250.776391, 232.837972)"><g><path d="M 0.125 -4.578125 L 2.484375 -2.96875 C 2.410156 -2.726562 2.257812 -2.390625 2.03125 -1.953125 C 1.800781 -1.515625 1.578125 -1.132812 1.359375 -0.8125 C -0.515625 -1.863281 -2.203125 -2.84375 -3.703125 -3.75 C -5.203125 -4.664062 -6.457031 -5.46875 -7.46875 -6.15625 C -7.46875 -6.238281 -7.460938 -6.300781 -7.453125 -6.34375 C -7.453125 -6.394531 -7.445312 -6.4375 -7.4375 -6.46875 C -7.394531 -6.90625 -7.28125 -7.363281 -7.09375 -7.84375 C -6.914062 -8.320312 -6.679688 -8.789062 -6.390625 -9.25 C -5.347656 -9.257812 -4.363281 -9.21875 -3.4375 -9.125 C -2.507812 -9.03125 -1.550781 -8.875 -0.5625 -8.65625 C -1.53125 -9.320312 -2.410156 -9.894531 -3.203125 -10.375 C -3.992188 -10.863281 -4.648438 -11.234375 -5.171875 -11.484375 C -5.015625 -11.992188 -4.828125 -12.476562 -4.609375 -12.9375 C -4.398438 -13.40625 -4.160156 -13.84375 -3.890625 -14.25 C -3.410156 -13.945312 -2.953125 -13.65625 -2.515625 -13.375 C -2.078125 -13.09375 -1.65625 -12.816406 -1.25 -12.546875 C -0.25 -11.859375 0.78125 -11.117188 1.84375 -10.328125 C 2.90625 -9.535156 3.910156 -8.757812 4.859375 -8 C 4.597656 -7.4375 4.375 -6.976562 4.1875 -6.625 C 4 -6.28125 3.8125 -5.945312 3.625 -5.625 C 2.007812 -5.957031 0.742188 -6.1875 -0.171875 -6.3125 C -1.085938 -6.445312 -1.953125 -6.535156 -2.765625 -6.578125 C -2.429688 -6.335938 -2.0625 -6.078125 -1.65625 -5.796875 C -1.257812 -5.523438 -0.664062 -5.117188 0.125 -4.578125 Z M 0.125 -4.578125 "/></g></g></g></svg>